# Blender 4.5.1 LTS
# www.blender.org
o chair.001
v -0.111760 -0.208209 -0.369853
v -0.112360 -0.208544 0.111487
v -0.122102 0.235199 -0.369432
v -0.122703 0.234863 0.111908
v 0.331563 -0.197880 -0.369057
v 0.330963 -0.198215 0.112284
v 0.321220 0.245528 -0.368636
v 0.320620 0.245192 0.112705
v -0.001622 0.237775 -0.022363
v -0.001789 0.237681 0.112125
v 0.008721 -0.205633 -0.022784
v 0.008553 -0.205727 0.111704
v -0.202874 -0.210865 0.428659
v -0.213216 0.232542 0.429079
v -0.092303 0.235359 0.429296
v -0.081960 -0.208048 0.428876
v 0.231023 0.243104 0.112544
v 0.241534 -0.200208 -0.022367
v 0.231190 0.243198 -0.021946
v 0.241366 -0.200302 0.112123
v -0.112060 -0.208377 -0.129182
v -0.122403 0.235031 -0.128762
v 0.320920 0.245360 -0.127965
v 0.331263 -0.198047 -0.128386
v 0.008650 -0.205673 0.033982
v -0.001693 0.237735 0.034403
v 0.241463 -0.200248 0.034400
v 0.231120 0.243159 0.034821
v -0.061649 0.236606 -0.366833
v -0.051904 -0.207136 0.111596
v -0.062246 0.236272 0.112017
v -0.051306 -0.206802 -0.367254
v -0.142417 -0.209456 0.428767
v -0.152759 0.233951 0.429188
v -0.062048 0.236383 -0.047179
v -0.051705 -0.207025 -0.047600
v 0.275821 0.244148 0.112624
v 0.286761 -0.198925 -0.366647
v 0.276419 0.244482 -0.366226
v 0.286164 -0.199258 0.112203
v 0.286362 -0.199147 -0.046993
v 0.276020 0.244259 -0.046572
vn -0.9997 -0.0233 -0.0013
vn -0.0233 0.9997 0.0007
vn 0.9997 0.0233 0.0013
vn 0.0233 -0.9997 -0.0007
vn -0.0537 -0.0003 -0.9986
vn -0.9613 -0.0222 -0.2745
vn -0.0018 -0.0010 1.0000
vn 0.9849 0.0231 -0.1717
vn 0.9613 0.0222 0.2745
vn 0.0018 0.0010 -1.0000
vn 0.0429 0.0019 -0.9991
vn -0.9912 -0.0230 -0.1303
vt 0.500000 0.000000
vt 0.625000 0.000000
vt 0.625000 0.250000
vt 0.500000 0.250000
vt 0.500000 0.468750
vt 0.625000 0.468750
vt 0.625000 0.500000
vt 0.500000 0.500000
vt 0.625000 0.750000
vt 0.500000 0.750000
vt 0.500000 0.937500
vt 0.625000 0.937500
vt 0.625000 1.000000
vt 0.500000 1.000000
vt 0.343750 0.500000
vt 0.375000 0.500000
vt 0.375000 0.750000
vt 0.343750 0.750000
vt 0.687500 0.500000
vt 0.750000 0.500000
vt 0.750000 0.750000
vt 0.687500 0.750000
vt 0.187500 0.500000
vt 0.250000 0.500000
vt 0.250000 0.750000
vt 0.187500 0.750000
vt 0.500000 0.812500
vt 0.625000 0.812500
vt 0.625000 0.875000
vt 0.500000 0.875000
vt 0.500000 0.312500
vt 0.625000 0.312500
vt 0.625000 0.375000
vt 0.500000 0.375000
vt 0.812500 0.500000
vt 0.875000 0.500000
vt 0.875000 0.750000
vt 0.812500 0.750000
vt 0.500000 0.781250
vt 0.625000 0.781250
vt 0.656250 0.500000
vt 0.656250 0.750000
vt 0.312500 0.500000
vt 0.312500 0.750000
vt 0.625000 0.437500
vt 0.500000 0.437500
vt 0.375000 0.375000
vt 0.375000 0.437500
vt 0.375000 0.781250
vt 0.375000 0.812500
vt 0.375000 0.312500
vt 0.375000 0.875000
vt 0.375000 0.937500
vt 0.375000 1.000000
vt 0.375000 0.468750
vt 0.375000 0.000000
vt 0.375000 0.250000
vt 0.125000 0.500000
vt 0.125000 0.750000
s 1
f 21/1/1 2/2/1 4/3/1 22/4/1
f 42/5/2 37/6/2 8/7/2 23/8/2
f 23/8/3 8/7/3 6/9/3 24/10/3
f 36/11/4 30/12/4 2/13/4 21/14/4
f 39/15/5 7/16/5 5/17/5 38/18/5
f 4/3/6 2/2/6 13/2/6 14/3/6
f 17/19/7 10/20/7 12/21/7 20/22/7
f 29/23/8 9/24/8 11/25/8 32/26/8
f 27/27/4 20/28/4 12/29/4 25/30/4
f 35/31/2 31/32/2 10/33/2 26/34/2
f 34/35/7 14/36/7 13/37/7 33/38/7
f 31/32/2 4/3/2 14/3/2 34/32/2
f 30/12/4 12/29/4 16/29/4 33/12/4
f 12/21/9 10/20/9 15/20/9 16/21/9
f 41/39/4 40/40/4 20/28/4 27/27/4
f 37/41/7 17/19/7 20/22/7 40/42/7
f 9/24/10 19/43/10 18/44/10 11/25/10
f 26/34/2 10/33/2 17/45/2 28/46/2
f 9/47/2 26/34/2 28/46/2 19/48/2
f 38/49/4 41/39/4 27/27/4 18/50/4
f 29/51/2 35/31/2 26/34/2 9/47/2
f 18/50/4 27/27/4 25/30/4 11/52/4
f 32/53/4 36/11/4 21/14/4 1/54/4
f 7/16/3 23/8/3 24/10/3 5/17/3
f 39/55/2 42/5/2 23/8/2 7/16/2
f 1/56/1 21/1/1 22/4/1 3/57/1
f 11/52/4 25/30/4 36/11/4 32/53/4
f 3/57/2 22/4/2 35/31/2 29/51/2
f 2/13/4 30/12/4 33/12/4 13/13/4
f 10/33/2 31/32/2 34/32/2 15/33/2
f 15/20/7 34/35/7 33/38/7 16/21/7
f 22/4/2 4/3/2 31/32/2 35/31/2
f 3/58/11 29/23/11 32/26/11 1/59/11
f 25/30/4 12/29/4 30/12/4 36/11/4
f 19/48/2 28/46/2 42/5/2 39/55/2
f 5/17/4 24/10/4 41/39/4 38/49/4
f 8/7/7 37/41/7 40/42/7 6/9/7
f 24/10/4 6/9/4 40/40/4 41/39/4
f 19/43/12 39/15/12 38/18/12 18/44/12
f 28/46/2 17/45/2 37/6/2 42/5/2
